<?xml version="1.0" encoding="UTF-8"?>
<!-- Created with Inkscape (http://www.inkscape.org/) -->
<svg width="1e3" height="1e3" version="1.1" viewBox="0 0 264.58 264.58" xmlns="http://www.w3.org/2000/svg">
 <g transform="translate(-255.26 -176.44)">
  <path d="m386.03 176.79c-0.7854 0.51705-15.635 6.6183-22.802 9.3691-24.053 9.2036-42.952 14.519-64.944 18.304-3.6325 0.62046-21.403 3.1644-32.521 4.6535-4.3198 0.5791-8.4432 1.1996-9.1796 1.3857l-1.3254 0.35161 0.14727 4.9637c0.12269 4.9017 0.44179 11.044 1.399 28.149 1.0308 18.511 1.4726 24.095 2.8226 36.918 0.46633 4.426 0.85905 6.7011 1.6936 10.238 4.9334 20.662 9.6214 34.312 17.034 49.638 4.2216 8.7486 5.8416 11.623 10.284 18.2 7.6824 11.334 13.18 18.469 21.771 28.231 5.9152 6.7217 11.609 12.141 20.691 19.669 5.7925 4.819 25.673 19.09 31.122 22.358 0.95724 0.55842 3.7307 2.0476 6.2097 3.2885 2.479 1.2616 5.4734 2.8335 6.7006 3.4953 4.0744 2.2544 11.978 5.3981 12.591 4.9844 0.1473-0.0829 1.1291-0.45499 2.1845-0.82728 3.6571-1.2616 7.9033-3.061 10.235-4.3019 1.3009-0.70321 4.4916-2.3578 7.1178-3.7021 2.6262-1.3237 5.3998-2.7921 6.1361-3.2471 2.8717-1.7787 10.529-7.1147 18.654-12.988 8.7868-6.3495 17.156-13.216 23.955-19.648 6.5779-6.2047 17.181-18.593 23.833-27.797 9.6704-13.402 13.966-20.703 19.783-33.609 4.1726-9.2863 6.6761-16.091 9.6214-26.163 4.1234-14.188 5.817-22.171 6.8479-32.368 1.0308-10.072 2.5772-34.664 3.0926-48.914 0.12283-3.9917 0.36815-9.3277 0.51542-11.851 0.14729-2.606 0.19638-4.6949 0.0734-4.7983-0.31901-0.22751-12.493-2.1303-19.979-3.1023-27.195-3.5367-41.112-6.3495-61.361-12.451-5.4488-1.6339-16.224-5.3154-21.844-7.4456-13.058-4.9844-27.023-10.651-27.367-11.127-0.24548-0.3309-2.6262-0.24817-3.1908 0.14479z" fill="#e00"/>
  <g fill="#fdfdfd" stroke-width="8.2723" aria-label="*">
   <path d="m411.95 217.65-6.1396 56.872 57.518-16.318 5.978 47.662-50.732 3.3929 33.444 44.916-42.008 22.296-23.104-45.724-19.873 45.4-43.946-21.973 33.283-44.916-50.571-4.0392 7.2705-47.016 56.225 16.318-6.3011-56.872z"/>
  </g>
 </g>
</svg>